<?xml version="1.0" encoding="utf-8"?>
<!-- Svg Vector Icons : http://www.onlinewebfonts.com/icon -->
<!DOCTYPE svg PUBLIC "-//W3C//DTD SVG 1.1//EN" "http://www.w3.org/Graphics/SVG/1.1/DTD/svg11.dtd">
<svg version="1.1" xmlns="http://www.w3.org/2000/svg" xmlns:xlink="http://www.w3.org/1999/xlink" x="0px" y="0px" viewBox="0 0 1000 1000" enable-background="new 0 0 1000 1000" xml:space="preserve">
<metadata> Svg Vector Icons : http://www.onlinewebfonts.com/icon </metadata>
<g><g transform="translate(0.000000,511.000000) scale(0.100000,-0.100000)"><path d="M3638.7,4262.7c-649.8-116.5-1095.2-510.8-1256.6-1109.5c-34.7-126.7-44.9-237-51.1-582.3c-10.2-396.4-14.3-425-51.1-445.5c-22.5-12.3-59.3-63.3-81.7-114.4c-51.1-118.5-57.2-447.5-8.2-631.4c63.3-241.1,210.5-512.9,371.9-682.5c42.9-45,89.9-134.9,130.8-247.3C2805,139.4,2993-128.3,3230-316.3c410.7-322.8,886.8-384.1,1332.2-171.6c355.5,169.6,664.1,533.3,815.3,958.3c32.7,91.9,83.8,183.9,126.7,232.9c102.2,110.3,243.1,335.1,296.3,465.9c79.7,200.2,102.2,310.6,102.2,531.3c0,232.9-32.7,363.7-110.3,416.8c-36.8,26.6-40.9,53.1-45,341.2c-6.1,445.4-79.7,725.4-239.1,907.2c-40.9,47-79.7,122.6-94,181.9c-79.7,314.7-292.2,504.7-719.3,643.6C4386.6,4291.3,3955.4,4320,3638.7,4262.7z"/><path d="M7249.2,376.4C6107,174.1,5302-886.4,5410.3-2040.8c89.9-948.1,749.9-1728.6,1671.4-1975.9c177.8-49,235-55.2,566-55.2c337.1,0,384.1,4.1,572.1,55.2c1205.5,326.9,1920.7,1552.9,1606,2754.4c-261.5,993-1164.7,1681.6-2196.6,1671.4C7514.9,409.1,7345.3,392.7,7249.2,376.4z M7110.3-1041.7c251.3-53.1,496.5-251.3,590.5-478.1l47-112.4h635.5c617.1,0,637.5-2.1,682.5-42.9c67.4-63.3,89.9-134.8,63.3-214.5c-34.7-104.2-87.9-130.8-259.5-130.8h-149.2v-253.4c0-241.1-2-259.5-49.1-312.6c-40.9-47-65.4-57.2-145.1-57.2s-104.2,10.2-145.1,57.2c-47,53.1-49,71.5-49,312.6v253.4H8040h-292.2l-49.1-116.5c-67.4-167.5-273.8-371.9-439.3-435.2c-169.6-67.4-420.9-67.4-588.5-2.1c-165.5,65.4-343.3,232.9-427.1,406.6c-63.3,126.7-67.4,151.2-67.4,341.2c0,179.8,6.1,218.6,55.2,322.8c108.3,230.9,351.5,425,586.4,463.8C6955-1017.1,6989.7-1017.1,7110.3-1041.7z"/><path d="M6783.4-1470.8c-369.8-188-239.1-751.9,175.7-754c235,0,392.3,159.4,392.3,400.5c0,222.7-138.9,371.9-363.7,390.3C6895.7-1427.9,6852.8-1434,6783.4-1470.8z"/><path d="M2457.7-175.3C1440.1-588,1164.3-727,888.4-964C483.8-1311.4,159-2057.2,107.9-2766.2c-14.3-175.7-12.3-185.9,32.7-226.8c69.5-63.3,388.2-175.7,733.5-261.6c486.3-118.5,1019.6-196.1,1828.8-261.5c447.5-36.8,2237.4-36.8,2676.7,0c179.8,16.3,329,30.6,333.1,34.7c4.1,2-47,77.6-110.3,165.5c-220.7,308.6-384.1,696.8-449.5,1070.7c-45,263.6-30.7,780.5,28.6,1001.2c87.9,333.1,235,637.5,431.1,899.1c45,61.3,83.8,116.5,83.8,122.6c0,6.1-75.6,40.9-167.6,75.6l-169.6,67.4l-49-67.4c-232.9-302.4-523.1-512.9-860.2-627.3c-185.9-61.3-531.3-77.6-725.4-32.7c-316.7,73.6-666.1,298.3-907.2,584.4c-61.3,73.6-116.5,134.9-122.6,136.9C2688.6-85.4,2582.3-124.2,2457.7-175.3z"/></g></g>
</svg>