<?xml version="1.0" encoding="utf-8"?>
<!-- Svg Vector Icons : http://www.onlinewebfonts.com/icon -->
<!DOCTYPE svg PUBLIC "-//W3C//DTD SVG 1.1//EN" "http://www.w3.org/Graphics/SVG/1.1/DTD/svg11.dtd">
<svg version="1.1" xmlns="http://www.w3.org/2000/svg" xmlns:xlink="http://www.w3.org/1999/xlink" x="0px" y="0px" viewBox="0 0 1000 1000" enable-background="new 0 0 1000 1000" xml:space="preserve">
<metadata> Svg Vector Icons : http://www.onlinewebfonts.com/icon </metadata>
<g><g transform="translate(0.000000,511.000000) scale(0.100000,-0.100000)"><path d="M4158,4588.6c-1004.3-102.3-1977.9-556.3-2695.8-1253.8C723.8,2616.8,277.9,1729.1,126.6,673.7C87.7,403.7,91.8-216,136.8-502.4c198.4-1315.2,906.1-2432,1986.1-3141.7c1589.3-1043.1,3628.5-975.7,5172.8,171.8c765,568.6,1325.4,1386.8,1622,2366.5l36.8,122.7l327.3,10.2c362,12.3,405,24.6,517.5,151.4c77.7,87.9,114.6,214.8,96.1,331.4c-8.2,59.3-151.4,325.2-495,910.2c-263.8,454.1-503.2,857-531.8,893.8c-147.3,196.4-478.6,212.7-642.2,30.7c-38.9-42.9-290.4-454.1-558.4-914.3c-413.1-703.6-490.9-850.9-499.1-932.7c-16.4-182,75.7-353.8,229.1-427.5c73.6-36.8,126.8-43,355.9-43c173.9,0,270-8.2,270-20.4c0-36.8-135-372.3-204.5-511.3c-257.7-511.3-679.1-1002.2-1145.4-1335.6c-366.1-259.8-902-492.9-1352-585c-1037-212.7-2129.3,43-2965.8,697.5c-225,175.9-546.1,513.4-720,752.7c-261.8,366.1-492.9,902-587,1360.2c-212.7,1022.7,47,2125.2,699.5,2957.6c175.9,225,513.4,546.1,752.7,720c237.3,169.8,697.5,398.8,971.6,484.8c1270.2,400.9,2607.9,102.3,3577.4-797.7c165.7-153.4,229.1-192.3,343.6-212.7c327.3-59.3,609.5,306.8,468.4,611.6c-47,102.3-325.2,370.2-589.1,566.6c-582.9,433.6-1243.6,711.8-1979.9,834.5C5002.8,4598.8,4442.3,4617.2,4158,4588.6z"/><path d="M4362.6,2667.9c-306.8-38.9-550.2-186.1-681.1-413.2c-79.8-132.9-116.6-304.8-116.6-542c0-192.3-4.1-214.8-53.2-286.4c-49.1-71.6-53.2-90-43-245.4c10.2-188.2,63.4-323.2,186.1-482.7c40.9-55.2,94.1-145.2,116.6-202.5c122.7-312.9,384.5-537.9,675-578.8c304.8-45,658.6,198.4,805.9,552.3c32.7,79.8,77.7,165.7,104.3,194.3c139.1,157.5,212.7,353.8,212.7,562.5c0,112.5-8.2,159.5-38.8,196.4c-28.6,38.9-38.9,98.2-49.1,263.8c-10.2,229.1-63.4,415.2-135,478.6c-22.5,20.4-45,65.5-51.1,102.3c-20.4,110.4-120.7,227-241.4,286.4C4853.5,2649.5,4573.2,2696.6,4362.6,2667.9z"/><path d="M3450.3,82.6c-476.6-200.5-593.2-265.9-744.5-419.3c-147.3-147.3-249.5-331.4-327.3-589.1c-51.1-167.7-81.8-439.8-55.2-486.8c22.5-40.9,128.9-83.8,351.8-143.2c848.8-227,2505.6-251.6,3469-53.2c251.6,53.2,519.5,137,562.5,180c69.6,69.6-18.4,499.1-165.7,795.7c-71.6,149.3-118.6,212.7-233.2,321.1c-157.5,147.3-274.1,210.7-748.6,405l-286.4,118.6l-92-104.3c-362-413.2-908.1-423.4-1298.8-24.5l-124.8,128.8L3450.3,82.6z"/></g></g>
</svg>